<svg xmlns="http://www.w3.org/2000/svg" enable-background="new 0 0 24 24" viewBox="0 0 24 24"><path fill="#3b65f5" d="M18.4,17l-3.6-3.6c0.7-1,1.1-2.2,1.1-3.5c0-1.6-0.6-3.1-1.8-4.2C13,4.5,11.5,3.9,9.9,3.9S6.8,4.5,5.6,5.6C4.5,6.8,3.9,8.3,3.9,9.9s0.6,3.1,1.8,4.2c1.2,1.2,2.7,1.8,4.2,1.8c1.2,0,2.4-0.4,3.5-1.1l3.6,3.6c0.2,0.2,0.5,0.3,0.7,0.3s0.5-0.1,0.7-0.3C18.8,18,18.8,17.4,18.4,17z M7,12.7C6.3,12,5.9,10.9,5.9,9.9S6.3,7.8,7,7.1c1.5-1.5,4.1-1.5,5.7,0c0.8,0.8,1.2,1.8,1.2,2.8c0,1-0.4,2-1.1,2.8c0,0,0,0,0,0c0,0,0,0,0,0C11.1,14.3,8.6,14.3,7,12.7z"/></svg>